<svg width="72" height="72" viewBox="0 0 72 72" fill="none" xmlns="http://www.w3.org/2000/svg">
<g clip-path="url(#clip0_5_2)">
<path d="M67.9025 0.361938L3.68357 0.361938C1.84907 0.361938 0.361908 1.8491 0.361908 3.68361L0.361908 67.9025C0.361908 69.737 1.84907 71.2242 3.68357 71.2242H67.9025C69.737 71.2242 71.2241 69.737 71.2241 67.9025V3.68361C71.2241 1.8491 69.737 0.361938 67.9025 0.361938Z" fill="#3178C6"/>
<path fill-rule="evenodd" clip-rule="evenodd" d="M41.4743 55.4285V63.1935C42.7323 63.8401 44.2201 64.3256 45.9378 64.6489C47.6555 64.9728 49.4658 65.1344 51.369 65.1344C53.2237 65.1344 54.9857 64.9567 56.6547 64.6008C58.3244 64.2448 59.7876 63.6585 61.046 62.8414C62.3038 62.0243 63.2997 60.9569 64.0338 59.6382C64.7674 58.32 65.1344 56.6902 65.1344 54.7491C65.1344 53.3417 64.9246 52.1083 64.5055 51.0487C64.0859 49.9891 63.4813 49.0469 62.6908 48.2218C61.9008 47.3969 60.953 46.6568 59.8485 46.0016C58.7435 45.3465 57.4979 44.7277 56.1105 44.1454C55.0946 43.7248 54.1833 43.3163 53.3769 42.92C52.5705 42.5237 51.885 42.1193 51.3206 41.7068C50.7561 41.2942 50.3206 40.8575 50.0142 40.3964C49.7078 39.9354 49.5545 39.4137 49.5545 38.8314C49.5545 38.2975 49.6916 37.8163 49.9658 37.3876C50.24 36.959 50.6271 36.5909 51.127 36.2836C51.627 35.9762 52.2399 35.7376 52.9656 35.5678C53.6914 35.3979 54.4978 35.313 55.3849 35.313C56.0303 35.313 56.7112 35.3615 57.4292 35.4586C58.1467 35.5556 58.8686 35.7053 59.5944 35.9075C60.3202 36.1097 61.0255 36.3644 61.7114 36.6718C62.3968 36.9792 63.0296 37.335 63.6103 37.7394V30.4843C62.4328 30.0313 61.1467 29.6957 59.7516 29.4773C58.3565 29.2589 56.7561 29.1497 54.9494 29.1497C53.1108 29.1497 51.369 29.3479 49.7239 29.7442C48.0788 30.1405 46.6313 30.7593 45.3813 31.6004C44.1314 32.4417 43.1435 33.5133 42.4178 34.8155C41.692 36.1177 41.3291 37.6747 41.3291 39.4865C41.3291 41.7998 41.9944 43.7733 43.325 45.4071C44.6556 47.041 46.6756 48.4241 49.3852 49.5564C50.4496 49.9932 51.4416 50.4219 52.3608 50.8425C53.2802 51.263 54.0745 51.6998 54.7438 52.1528C55.4131 52.6057 55.9411 53.0991 56.3281 53.6329C56.7156 54.1667 56.9088 54.7733 56.9088 55.4528C56.9088 55.9545 56.7882 56.4195 56.5462 56.848C56.3043 57.2765 55.9373 57.6485 55.4454 57.9641C54.9534 58.2796 54.3406 58.5265 53.6067 58.7042C52.8729 58.882 52.0141 58.9711 51.0303 58.9711C49.3529 58.9711 47.6917 58.676 46.0466 58.0853C44.4016 57.4952 42.8775 56.6094 41.4743 55.4285ZM28.4314 36.1H38.5611V29.7033H10.3269V36.1H20.407V64.5808H28.4314V36.1Z" fill="#D9D9D9"/>
</g>
<defs>
<clipPath id="clip0_5_2">
<rect width="70.8622" height="70.8622" fill="white" transform="translate(0.361908 0.361938)"/>
</clipPath>
</defs>
</svg>
