<svg width="350" height="350" viewBox="0 0 350 350" fill="none" xmlns="http://www.w3.org/2000/svg">
<rect width="350" height="350" rx="175" fill="white"/>
<g filter="url(#filter0_d_3_2)">
<path d="M105.939 173.742C105.939 163.72 107.635 153.929 111.027 144.37C114.573 134.657 119.661 125.868 126.291 118.005C132.921 109.988 141.093 103.666 150.806 99.0407C160.52 94.2611 171.544 91.8713 183.878 91.8713C198.525 91.8713 211.014 95.2633 221.344 102.047C231.829 108.677 239.538 117.234 244.472 127.719L231.752 135.582C228.205 128.335 223.734 122.631 218.338 118.468C212.941 114.151 207.16 111.067 200.992 109.217C194.979 107.367 188.966 106.441 182.953 106.441C173.085 106.441 164.374 108.446 156.819 112.455C149.264 116.309 142.866 121.551 137.624 128.181C132.536 134.657 128.681 141.98 126.06 150.152C123.439 158.169 122.128 166.341 122.128 174.667C122.128 183.764 123.67 192.475 126.754 200.801C129.837 209.127 134.155 216.527 139.705 223.003C145.256 229.324 151.731 234.412 159.132 238.267C166.687 241.967 174.859 243.817 183.647 243.817C189.814 243.817 196.136 242.738 202.611 240.58C209.087 238.421 215.1 235.106 220.651 230.635C226.355 226.164 230.904 220.382 234.296 213.289L247.709 220.228C244.317 228.399 239.075 235.337 231.983 241.042C224.891 246.747 216.95 251.064 208.162 253.993C199.528 256.923 191.048 258.388 182.722 258.388C171.467 258.388 161.136 255.998 151.731 251.218C142.326 246.284 134.155 239.809 127.216 231.791C120.432 223.62 115.19 214.523 111.49 204.501C107.789 194.325 105.939 184.072 105.939 173.742Z" fill="black"/>
</g>
<defs>
<filter id="filter0_d_3_2" x="105.939" y="91.8712" width="148.998" height="173.744" filterUnits="userSpaceOnUse" color-interpolation-filters="sRGB">
<feFlood flood-opacity="0" result="BackgroundImageFix"/>
<feColorMatrix in="SourceAlpha" type="matrix" values="0 0 0 0 0 0 0 0 0 0 0 0 0 0 0 0 0 0 127 0" result="hardAlpha"/>
<feOffset dx="7.22727" dy="7.22727"/>
<feComposite in2="hardAlpha" operator="out"/>
<feColorMatrix type="matrix" values="0 0 0 0 0.501961 0 0 0 0 0.501961 0 0 0 0 0.501961 0 0 0 1 0"/>
<feBlend mode="normal" in2="BackgroundImageFix" result="effect1_dropShadow_3_2"/>
<feBlend mode="normal" in="SourceGraphic" in2="effect1_dropShadow_3_2" result="shape"/>
</filter>
</defs>
</svg>
